<?xml version="1.0" encoding="UTF-8"?>
<svg width="40px" height="40px" viewBox="0 0 40 40" version="1.1" xmlns="http://www.w3.org/2000/svg" xmlns:xlink="http://www.w3.org/1999/xlink">
    <!-- Generator: sketchtool 50.2 (55047) - http://www.bohemiancoding.com/sketch -->
    <title>7DD4279E-CF7E-4988-9D62-9A1D7C014DC7</title>
    <desc>Created with sketchtool.</desc>
    <defs></defs>
    <g id="Page-1" stroke="none" stroke-width="1" fill="none" fill-rule="evenodd">
        <g id="dockup---index---default" transform="translate(-575.000000, -728.000000)" fill="#777777">
            <g id="row" transform="translate(575.000000, 708.000000)">
                <path d="M20,60 C8.954305,60 0,51.045695 0,40 C0,28.954305 8.954305,20 20,20 C31.045695,20 40,28.954305 40,40 C40,51.045695 31.045695,60 20,60 Z M27.5,34 L23.75,34 L23.2841,33.1362 C23.117165,32.4684531 22.5171973,32.0000067 21.8289,32 L18.1711,32 C17.4828027,32.0000067 16.882835,32.4684531 16.7159,33.1362 L16.25,34 L12.5,34 C12.2238576,34 12,34.2238576 12,34.5 C12,34.7761424 12.2238576,35 12.5,35 L14.05,35 L14.9785,46.5757 C15.0188233,47.3736904 15.6775915,48.0000061 16.4766,48 L23.5742,48 C24.3735375,47.999926 25.032393,47.3730457 25.0722,46.5747 L26.0008,35 L27.5,35 C27.7761424,35 28,34.7761424 28,34.5 C28,34.2238576 27.7761424,34 27.5,34 Z M17.6861,33.3789 C17.7414513,33.1561309 17.9415574,32.9998006 18.1711,33 L21.8288,33 C22.058355,32.9997646 22.2584806,33.1561101 22.3138,33.3789 L22.7192,34 L17.2808,34 L17.6861,33.3789 Z M24.0742,46.5239 C24.0609861,46.7904617 23.841089,46.9998478 23.5742,47 L16.4766,47 C16.2100583,46.9999254 15.9902783,46.7910905 15.9766,46.5249 L15.0508,35 L25,35 L24.0742,46.5239 Z" id="icon-deleted"></path>
            </g>
        </g>
    </g>
</svg>