<?xml version="1.0" encoding="UTF-8"?>
<svg width="14px" height="18px" viewBox="0 0 14 18" version="1.1" xmlns="http://www.w3.org/2000/svg" xmlns:xlink="http://www.w3.org/1999/xlink">
    <!-- Generator: sketchtool 50.2 (55047) - http://www.bohemiancoding.com/sketch -->
    <title>70844428-B0CA-4B54-8AEE-994BD7B916CC</title>
    <desc>Created with sketchtool.</desc>
    <defs></defs>
    <g id="Page-1" stroke="none" stroke-width="1" fill="none" fill-rule="evenodd">
        <g id="dockup---index---sign-in" transform="translate(-600.000000, -284.000000)">
            <g id="input" transform="translate(575.000000, 266.000000)">
                <g id="icon-git" transform="translate(20.000000, 15.000000)">
                    <rect id="bound" x="0" y="0" width="24" height="24"></rect>
                    <path d="M9.99153685,8.24365264 C9.70483477,8.49832415 9.36898299,8.69887752 9,8.82929429 L9,15.1707057 C10.1651924,15.5825421 11,16.6937812 11,18 C11,19.6568542 9.65685425,21 8,21 C6.34314575,21 5,19.6568542 5,18 C5,16.6937812 5.83480763,15.5825421 7,15.1707057 L7,8.82929429 C5.83480763,8.41745788 5,7.30621883 5,6 C5,4.34314575 6.34314575,3 8,3 C9.65685425,3 11,4.34314575 11,6 C11,6.16068994 10.9873663,6.31842911 10.9630379,6.47227841 L14.6,9.2 C14.638219,9.22866425 14.673802,9.25953908 14.7067046,9.29231356 C15.0983094,9.10493072 15.5369008,9 16,9 C17.6568542,9 19,10.3431458 19,12 C19,13.6568542 17.6568542,15 16,15 C14.3431458,15 13,13.6568542 13,12 C13,11.5405365 13.1032896,11.1051976 13.2879154,10.7159366 L9.99153685,8.24365264 Z M15,12 C15,12.5522847 15.4477153,13 16,13 C16.5522847,13 17,12.5522847 17,12 C17,11.4477153 16.5522847,11 16,11 C15.4477153,11 15,11.4477153 15,12 Z M6.93220339,6 C6.93220339,6.58972778 7.41027222,7.06779661 8,7.06779661 C8.58972778,7.06779661 9.06779661,6.58972778 9.06779661,6 C9.06779661,5.41027222 8.58972778,4.93220339 8,4.93220339 C7.41027222,4.93220339 6.93220339,5.41027222 6.93220339,6 Z M6.93220339,18 C6.93220339,18.5897278 7.41027222,19.0677966 8,19.0677966 C8.58972778,19.0677966 9.06779661,18.5897278 9.06779661,18 C9.06779661,17.4102722 8.58972778,16.9322034 8,16.9322034 C7.41027222,16.9322034 6.93220339,17.4102722 6.93220339,18 Z" id="shape" fill="#3E83FF"></path>
                </g>
            </g>
        </g>
    </g>
</svg>