<?xml version="1.0" encoding="UTF-8"?>
<svg width="120px" height="120px" viewBox="0 0 120 120" version="1.1" xmlns="http://www.w3.org/2000/svg" xmlns:xlink="http://www.w3.org/1999/xlink">
    <!-- Generator: sketchtool 50.2 (55047) - http://www.bohemiancoding.com/sketch -->
    <title>79E57F95-0FA1-43B3-8C50-08500F580EA2</title>
    <desc>Created with sketchtool.</desc>
    <defs></defs>
    <g id="Page-1" stroke="none" stroke-width="1" fill="none" fill-rule="evenodd">
        <g id="dockup---configure---first" transform="translate(-900.000000, -431.000000)" fill-rule="nonzero">
            <g id="icon-whitelist" transform="translate(900.000000, 431.000000)">
                <path d="M62.7334735,57.1884758 C51.0500095,45.5034129 51.0943261,26.4340673 62.8341931,14.6885436 L68.6839826,8.83996604 C80.4238496,-2.90555772 99.4799822,-2.95392639 111.163446,8.73919799 C122.758277,20.3396158 122.967774,39.0542578 111.642871,51.3519904 L105.56747,57.4424113 C93.0379619,68.9984911 74.3283044,68.7888936 62.7334735,57.1884758 Z M99.7700545,20.1380797 C94.3674595,14.7369123 85.5363723,14.7812502 80.0773744,20.2388477 L74.2275849,26.0874253 C68.7726158,31.5450228 68.7282992,40.384396 74.1308941,45.7895942 C79.5858632,51.2471917 88.4975261,51.2592838 94.4117761,45.8097478 L100.023868,40.1868906 C105.23711,34.5116341 105.229052,25.5997079 99.7700545,20.1380797 Z" id="Shape" fill="#1976D2"></path>
                <path d="M8.7348395,111.19004 C-2.94978425,99.5010367 -2.90546326,80.4318385 8.83153983,68.6904361 L14.6819101,62.8378731 C26.4229423,51.09244 45.4809666,51.0481024 57.1655903,62.7411365 C68.7575429,74.3374339 68.9670603,93.0559621 57.6450628,105.3536 L51.5650293,111.443974 C39.0383068,122.999964 20.3308213,122.786338 8.7348395,111.19004 Z M45.7710676,74.1399301 C40.3679364,68.7347737 31.5359725,68.783142 26.0764328,74.2366667 L20.2260626,80.0892297 C14.770552,85.5467851 14.7262311,94.3860901 20.1293622,99.7872157 C25.588902,105.248802 34.4974203,105.260894 40.4082282,99.8113999 L46.0208768,94.1885862 C51.2426948,88.5133735 51.2306073,79.6015161 45.7710676,74.1399301 Z" id="Shape" fill="#1976D2"></path>
                <path d="M37.2201376,82.7798203 C34.2599541,79.8233711 34.2599541,75.0210363 37.2201376,72.0607967 L72.0600944,37.2201797 C75.0202778,34.2599401 79.8187314,34.2599401 82.7827051,37.2201797 C85.7390983,40.1804192 85.7390983,44.982754 82.7827051,47.9392033 L47.9427483,82.7798203 C44.9825649,85.7400599 40.1841113,85.7400599 37.2201376,82.7798203 Z" id="Shape" fill="#42A5F5"></path>
            </g>
        </g>
    </g>
</svg>