<?xml version="1.0" encoding="UTF-8"?>
<svg width="16px" height="18px" viewBox="0 0 16 18" version="1.1" xmlns="http://www.w3.org/2000/svg" xmlns:xlink="http://www.w3.org/1999/xlink">
    <!-- Generator: sketchtool 50.2 (55047) - http://www.bohemiancoding.com/sketch -->
    <title>93DA1306-3D7F-4DBF-A6FF-F5E94B3B9EDD</title>
    <desc>Created with sketchtool.</desc>
    <defs></defs>
    <g id="Page-1" stroke="none" stroke-width="1" fill="none" fill-rule="evenodd">
        <g id="dockup---index---sign-in" transform="translate(-599.000000, -338.000000)">
            <g id="input" transform="translate(575.000000, 320.000000)">
                <g id="icon-branch" transform="translate(20.000000, 15.000000)">
                    <rect id="bound" x="0" y="0" width="24" height="24"></rect>
                    <path d="M8,15.1707057 C8.85193437,15.4718213 9.52724992,16.1468273 9.82878595,16.9985629 L11.0029362,16.9987981 C13.4891679,16.9992962 15.5515991,15.1836457 15.9358027,12.8057712 C14.8042663,12.3763581 14,11.2821023 14,10 C14,8.34314575 15.3431458,7 17,7 C18.6568542,7 20,8.34314575 20,10 C20,11.3251365 19.1408366,12.4496046 17.949168,12.8467463 C17.5307138,16.3150503 14.5799199,18.9995147 11.0025356,18.9987981 L9.82980172,18.9985632 C9.41837127,20.164506 8.30675567,21 7,21 C5.34314575,21 4,19.6568542 4,18 C4,16.6937812 4.83480763,15.5825421 6,15.1707057 L6,8.82929429 C4.83480763,8.41745788 4,7.30621883 4,6 C4,4.34314575 5.34314575,3 7,3 C8.65685425,3 10,4.34314575 10,6 C10,7.30621883 9.16519237,8.41745788 8,8.82929429 L8,15.1707057 Z M16,10 C16,10.5522847 16.4477153,11 17,11 C17.5522847,11 18,10.5522847 18,10 C18,9.44771525 17.5522847,9 17,9 C16.4477153,9 16,9.44771525 16,10 Z M5.93220339,6 C5.93220339,6.58972778 6.41027222,7.06779661 7,7.06779661 C7.58972778,7.06779661 8.06779661,6.58972778 8.06779661,6 C8.06779661,5.41027222 7.58972778,4.93220339 7,4.93220339 C6.41027222,4.93220339 5.93220339,5.41027222 5.93220339,6 Z M5.93220339,18 C5.93220339,18.5897278 6.41027222,19.0677966 7,19.0677966 C7.58972778,19.0677966 8.06779661,18.5897278 8.06779661,18 C8.06779661,17.4102722 7.58972778,16.9322034 7,16.9322034 C6.41027222,16.9322034 5.93220339,17.4102722 5.93220339,18 Z" id="shape" fill="#3E83FF"></path>
                </g>
            </g>
        </g>
    </g>
</svg>