<?xml version="1.0" encoding="UTF-8"?>
<svg width="40px" height="40px" viewBox="0 0 40 40" version="1.1" xmlns="http://www.w3.org/2000/svg" xmlns:xlink="http://www.w3.org/1999/xlink">
    <!-- Generator: sketchtool 50.2 (55047) - http://www.bohemiancoding.com/sketch -->
    <title>FA4E17A8-9E5F-4884-A25F-E725053B4181</title>
    <desc>Created with sketchtool.</desc>
    <defs></defs>
    <g id="Page-1" stroke="none" stroke-width="1" fill="none" fill-rule="evenodd">
        <g id="dockup---index---default" transform="translate(-575.000000, -568.000000)" fill="#3E83FF">
            <g id="row" transform="translate(575.000000, 548.000000)">
                <path d="M16.6094999,46.0809896 L19.670563,44.9701199 C19.9301409,44.8759183 20.0642048,44.5891233 19.9700032,44.3295455 C19.8758015,44.0699676 19.5890066,43.9359037 19.3294287,44.0301054 L15.3294287,45.4817183 C15.0429082,45.5856975 14.9152936,45.9196488 15.0594545,46.1882066 L16.9642164,49.7365937 C17.0948213,49.979898 17.3979346,50.0712589 17.6412389,49.940654 C17.8845431,49.8100491 17.975904,49.5069358 17.8452991,49.2636316 L16.768785,47.2581898 C19.809183,48.6330785 23.3249302,48.0874001 25.6698647,45.7267388 C28.2062013,43.1733917 28.744356,39.1643391 26.9265768,36.2363863 C26.7809247,36.00178 26.4726644,35.9296684 26.2380582,36.0753205 C26.003452,36.2209725 25.9313403,36.5292328 26.0769924,36.763839 C27.6458829,39.2908992 27.1759712,42.7915675 24.9603986,45.0219992 C22.8033929,47.1934714 19.5033179,47.6030586 16.7351625,46.127736 C16.6945591,46.1060959 16.6523137,46.0906228 16.6094999,46.0809896 Z M23.3345518,33.9031539 L20.3244342,35.0319481 C20.065874,35.1289081 19.9348712,35.4171142 20.0318313,35.6756744 C20.1287913,35.9342345 20.4169974,36.0652373 20.6755576,35.9682772 L24.6755576,34.4682772 C24.9519761,34.3646203 25.0788827,34.0453006 24.9490272,33.7801789 L23.2347415,30.2801789 C23.1132755,30.0321857 22.8137696,29.9296152 22.5657764,30.0510813 C22.3177833,30.1725473 22.2152128,30.4720532 22.3366788,30.7200464 L23.3550536,32.7992282 C20.2867054,31.3526324 16.7069698,31.8807029 14.330127,34.2734865 C11.7937904,36.8268336 11.2556358,40.8358862 13.073415,43.763839 C13.219067,43.9984453 13.5273273,44.0705569 13.7619335,43.9249048 C13.9965398,43.7792528 14.0686514,43.4709925 13.9229994,43.2363863 C12.3541088,40.7093261 12.8240206,37.2086578 15.0395931,34.9782261 C17.1965989,32.8067539 20.4966739,32.3971667 23.2648292,33.8724893 C23.2876162,33.8846339 23.3109203,33.8948362 23.3345518,33.9031539 Z M20,60 C8.954305,60 0,51.045695 0,40 C0,28.954305 8.954305,20 20,20 C31.045695,20 40,28.954305 40,40 C40,51.045695 31.045695,60 20,60 Z" id="icon-sync"></path>
            </g>
        </g>
    </g>
</svg>